HIERARCHY
ROOT Hips
{
	OFFSET 0.00000 0.00000 0.00000
	CHANNELS 6 Xposition Yposition Zposition Zrotation Yrotation Xrotation 
	JOINT LHipJoint
	{
		OFFSET 0 0 0
		CHANNELS 3 Zrotation Yrotation Xrotation
		JOINT LeftHip
		{
			OFFSET 1.66553 -1.82942 0.76350
			CHANNELS 3 Zrotation Yrotation Xrotation
			JOINT LeftKnee
			{
				OFFSET 2.41740 -6.64177 0.00000
				CHANNELS 3 Zrotation Yrotation Xrotation
				JOINT LeftAnkle
				{
					OFFSET 2.71614 -7.46254 0.00000
					CHANNELS 3 Zrotation Yrotation Xrotation
					JOINT LeftToe
					{
						OFFSET 0.08005 -0.21993 1.82495
						CHANNELS 3 Zrotation Yrotation Xrotation
						End Site
						{
							OFFSET 0.00000 -0.00000 0.93441
						}
					}
				}
			}
		}
	}
	JOINT RHipJoint
	{
		OFFSET 0 0 0
		CHANNELS 3 Zrotation Yrotation Xrotation
		JOINT RightHip
		{
			OFFSET -1.63725 -1.82942 0.76350
			CHANNELS 3 Zrotation Yrotation Xrotation
			JOINT RightKnee
			{
				OFFSET -2.40538 -6.60872 0.00000
				CHANNELS 3 Zrotation Yrotation Xrotation
				JOINT RightAnkle
				{
					OFFSET -2.73312 -7.50919 0.00000
					CHANNELS 3 Zrotation Yrotation Xrotation
					JOINT RightToe
					{
						OFFSET -0.15567 -0.42769 1.93504
						CHANNELS 3 Zrotation Yrotation Xrotation
						End Site
						{
							OFFSET -0.00000 -0.00000 1.00100
						}
					}
				}
			}
		}
	}
	JOINT lowerback
	{
		OFFSET 0 0 0
		CHANNELS 3 Zrotation Yrotation Xrotation
		JOINT Chest
		{
			OFFSET 0.00326 2.30118 -0.13017
			CHANNELS 3 Zrotation Yrotation Xrotation
			JOINT Chest2
			{
				OFFSET 0.02887 2.30677 0.00834
				CHANNELS 3 Zrotation Yrotation Xrotation
				JOINT lowerneck
				{
					OFFSET 0 0 0
					CHANNELS 3 Zrotation Yrotation Xrotation
					JOINT Neck
					{
						OFFSET 0.12946 1.68326 0.00713
						CHANNELS 3 Zrotation Yrotation Xrotation
						JOINT Head
						{
							OFFSET -0.24364 1.67243 -0.16079
							CHANNELS 3 Zrotation Yrotation Xrotation
							End Site
							{
								OFFSET -0.09229 1.70819 -0.06383
							}
						}
					}
				}
				JOINT LeftCollar
				{
					OFFSET 0 0 0
					CHANNELS 3 Zrotation Yrotation Xrotation
					JOINT LeftShoulder
					{
						OFFSET 3.28104 0.69567 -0.00556
CHANNELS 3 Zrotation Xrotation Yrotation
						JOINT LeftElbow
						{
OFFSET 0 -5.707060 -0.000000
CHANNELS 3 Zrotation Xrotation Yrotation
							JOINT LeftWrist
							{
OFFSET 0 -3.332430 0.000000
CHANNELS 3 Zrotation Xrotation Yrotation
								JOINT lhand
								{
									OFFSET 0 0 0
CHANNELS 3 Zrotation Xrotation Yrotation
									JOINT LFingers
									{
OFFSET 0 -0.792690 0.000000
CHANNELS 3 Zrotation Xrotation Yrotation
										End Site
										{
OFFSET 0 -0.639090 0.000000
										}
									}
								}
								JOINT LThumb
								{
OFFSET 0 0.000000 0.000000
CHANNELS 3 Zrotation Xrotation Yrotation
									End Site
									{
OFFSET 0 -0.648840 0.648840
									}
								}
							}
						}
					}
				}
				JOINT RightCollar
				{
					OFFSET 0 0 0
					CHANNELS 3 Zrotation Yrotation Xrotation
					JOINT RightShoulder
					{
						OFFSET -3.40955 0.64424 0.14010
CHANNELS 3 Zrotation Xrotation Yrotation
						JOINT RightElbow
						{
OFFSET 0 -5.881760 -0.000000
CHANNELS 3 Zrotation Xrotation Yrotation
							JOINT RightWrist
							{
OFFSET 0 -3.281560 0.000000
CHANNELS 3 Zrotation Xrotation Yrotation
								JOINT rhand
								{
									OFFSET 0 0 0
CHANNELS 3 Zrotation Xrotation Yrotation
									JOINT RFingers
									{
OFFSET 0 -0.863130 0.000000
CHANNELS 3 Zrotation Xrotation Yrotation
										End Site
										{
OFFSET 0 -0.695870 0.000000
										}
									}
								}
								JOINT RThumb
								{
OFFSET 0 0.000000 0.000000
CHANNELS 3 Zrotation Xrotation Yrotation
									End Site
									{
OFFSET 0 -0.706500 0.706500
									}
								}
							}
						}
					}
				}
			}
		}
	}
}
MOTION
Frames: 6
Frame Time: 0.008333333333333333
7.395300 17.369600 -28.232900 2.268400 -17.807200 -0.715700 0.000000 0.000000 0.000000 -25.117400 6.187400 -14.691700 2.720100 10.227600 29.716800 1.262500 11.334600 -28.062900 0.079800 -1.822300 -5.014800 0.000000 0.000000 0.000000 6.446000 -8.243900 -13.906900 -3.438100 -11.372500 33.546800 -2.652700 -12.161200 -36.923200 -6.425200 -14.828100 46.665400 -2.361700 -3.302600 1.635000 1.935100 -4.481900 -7.048600 3.727300 -1.997500 -7.968300 20.434000 15.269100 4.479500 -21.033400 23.734700 10.533900 -7.977000 11.823700 7.545500 -0.000000 0.000000 0.000000 22.134000 -1.231800 -53.460100 24.873000 -36.073900 8.215000 30.346800 -17.234300 -23.500500 0.000000 0.000000 0.000000 -7.125000 0.000000 0.000000 1.290500 56.716800 -0.370700 -0.000000 0.000000 0.000000 -15.544500 15.483000 -4.338000 -9.894100 -16.573800 -1.444600 -20.925900 14.026400 -26.914600 0.000000 0.000000 0.000000 7.125000 0.000000 -0.000000 5.452400 1.568900 5.325400
7.568148 17.391634 -28.137307 1.856104 -13.283156 -0.218244 0.000000 0.000000 0.000000 -25.422181 4.757641 -14.332618 2.626026 10.063569 29.182775 1.095543 10.455009 -26.111463 0.274604 -3.367811 -9.304670 0.000000 0.000000 0.000000 5.859117 -11.597598 -15.806425 -4.000156 -12.160603 36.302707 -1.763517 -14.895228 -34.182152 -6.627494 -15.009816 47.450634 -2.436657 -4.145203 1.909140 2.123950 -5.601028 -6.706624 4.048209 -2.547854 -7.645235 19.008340 12.970055 3.338187 -23.617072 20.575207 10.224309 -9.179349 10.113809 7.092060 0.000000 0.000000 0.000000 24.101086 -6.403884 -56.087163 35.898514 -45.442046 15.450490 31.040696 -21.370140 -23.471805 0.000000 0.000000 0.000000 -7.125000 0.000000 0.000000 2.076309 56.843533 -0.602636 0.000000 0.000000 0.000000 -16.491548 24.273802 -5.634732 -10.372687 -17.320448 -1.584140 -20.119850 13.506783 -26.318510 0.000000 0.000000 0.000000 7.125000 0.000000 0.000000 5.870887 2.327394 5.657729
7.722355 17.413896 -28.029498 1.298722 -10.818547 -0.294889 0.000000 0.000000 0.000000 -25.414501 4.969608 -13.685940 2.529923 9.892069 28.627911 1.120729 9.029736 -25.164036 0.375123 -3.931577 -10.884560 0.000000 0.000000 0.000000 5.432948 -12.525044 -15.866548 -4.280771 -12.524960 37.615416 -1.522212 -15.745605 -33.533645 -7.672405 -15.872962 51.373930 -0.498477 -3.948085 1.956162 1.486083 -5.251830 -6.231883 2.265099 -2.519225 -7.415276 13.675681 6.837870 -2.855814 -25.053197 12.912431 18.414814 -9.998942 5.347111 8.729961 0.000000 0.000000 0.000000 24.969231 -6.864493 -58.419311 46.471120 -51.468563 23.384204 31.680830 -22.738760 -21.331373 0.000000 0.000000 0.000000 -7.125000 0.000000 0.000000 3.211198 54.601473 -0.757811 0.000000 0.000000 0.000000 -14.649785 30.345614 -2.056091 -10.428194 -17.406631 -1.600688 -18.583049 18.266000 -26.651555 0.000000 0.000000 0.000000 7.125000 0.000000 0.000000 6.827843 2.250947 6.601847
7.856798 17.404002 -27.965369 1.539710 -10.628075 -0.495917 0.000000 0.000000 0.000000 -26.236749 5.196333 -13.242752 2.467629 9.778786 28.263300 1.081830 9.283310 -25.055885 0.444657 -4.277737 -11.859448 0.000000 0.000000 0.000000 4.396644 -12.206477 -15.351390 -4.297742 -12.546395 37.693443 -1.295375 -16.164136 -32.573745 -7.744735 -15.928281 51.638020 0.216125 -3.646191 1.578889 0.665321 -4.850479 -5.218890 0.908981 -2.399073 -6.259740 12.006083 4.812171 -3.688843 -24.901185 10.493375 21.147352 -10.081093 3.898615 9.134559 0.000000 0.000000 0.000000 24.160310 -1.759160 -59.473643 52.741616 -54.043119 28.378854 30.502198 -22.725740 -20.508901 0.000000 0.000000 0.000000 -7.125000 0.000000 0.000000 2.087277 53.435675 -0.433646 0.000000 0.000000 0.000000 -13.914387 28.630197 -0.686567 -10.146091 -16.967728 -1.517279 -15.474515 24.459183 -25.374241 0.000000 0.000000 0.000000 7.125000 0.000000 0.000000 8.599727 4.028879 8.067259
7.953169 17.386343 -27.952740 1.091277 -11.073558 -0.003015 0.000000 0.000000 0.000000 -26.038242 6.526731 -14.656981 2.590710 10.001029 28.980035 1.165432 8.395975 -25.035266 0.554545 -4.769484 -13.252466 0.000000 0.000000 0.000000 5.021011 -11.523520 -15.111991 -4.018508 -12.184967 36.389507 -1.542706 -15.954527 -33.840045 -7.982112 -16.105598 52.497447 0.620756 -3.190500 2.111236 0.623834 -4.217885 -5.079928 0.627185 -2.104726 -6.456744 12.594996 5.323853 -2.182290 -23.286794 10.604188 19.294884 -9.402952 4.294529 8.160587 0.000000 0.000000 0.000000 21.147236 6.839025 -62.149285 46.326562 -51.400325 23.271389 31.833029 -23.474497 -18.869509 0.000000 0.000000 0.000000 -7.125000 0.000000 0.000000 3.650627 51.824025 -0.524659 0.000000 0.000000 0.000000 -15.114957 25.774516 5.989077 -12.547838 -20.621047 -2.291611 -14.440189 19.926372 -23.971772 0.000000 0.000000 0.000000 7.125000 0.000000 0.000000 9.146195 5.581751 8.322586
7.954831 17.379650 -27.994000 0.810829 -11.545925 -0.510989 0.000000 0.000000 0.000000 -25.579613 7.658065 -14.903834 2.699780 10.192354 29.601972 1.469058 6.708004 -26.186094 0.178606 -2.718205 -7.495498 0.000000 0.000000 0.000000 5.639189 -8.842605 -13.319007 -3.730370 -11.792637 35.002348 -0.910927 -12.912460 -26.907381 -5.675939 -14.105488 43.664389 0.019886 -2.515856 4.001063 0.252104 -3.362490 -4.541886 0.587348 -1.653832 -6.963813 13.837148 4.931518 -1.988380 -22.564474 9.247915 15.996509 -9.308175 3.915984 6.796598 0.000000 0.000000 0.000000 17.688540 14.878033 -62.051155 33.894282 -44.002380 14.040897 27.580533 -20.943646 -22.974981 0.000000 0.000000 0.000000 -7.125000 0.000000 0.000000 -1.611495 55.534635 0.417932 0.000000 0.000000 0.000000 -15.819502 19.446428 12.254439 -13.874060 -22.554299 -2.779617 -16.787321 15.166667 -22.278972 0.000000 0.000000 0.000000 7.125000 0.000000 0.000000 7.587291 6.980271 6.669497
